<svg width="59" height="57" viewBox="0 0 59 57" fill="none" xmlns="http://www.w3.org/2000/svg">
<path d="M29.1201 0C34.567 3.52925e-06 39.4903 1.25968 43.8896 3.7793C48.3587 6.29888 51.8504 9.72817 54.3643 14.0674C56.948 18.3367 58.2402 23.1311 58.2402 28.4502C58.2402 33.7693 56.9479 38.5637 54.3643 42.833C51.8503 47.1024 48.3935 50.497 43.9941 53.0166C39.5948 55.5362 34.6368 56.7959 29.1201 56.7959C23.6733 56.7959 18.75 55.5362 14.3506 53.0166C9.95128 50.497 6.45971 47.1023 3.87598 42.833C1.2923 38.5637 0 33.7693 0 28.4502C3.90617e-05 23.1311 1.25759 18.3367 3.77148 14.0674C6.35523 9.72817 9.8468 6.29886 14.2461 3.7793C18.7153 1.25969 23.6733 0 29.1201 0ZM29.0098 12.1631C24.8438 12.1631 20.9423 13.0848 17.707 14.6943C16.2965 15.3962 15.045 15.9793 13.9941 17.6758C13.0516 19.1977 12.9814 20.7367 12.9785 22.4404V28.5605C12.9789 38.626 21.0202 44.0433 25.207 46.1973C26.3503 46.7855 27.3241 47.3086 29.0098 47.3086C30.6954 47.3086 31.6693 46.7855 32.8125 46.1973C36.9994 44.0432 45.0407 38.626 45.041 28.5605V23.1807C45.041 21.1764 45.1026 19.415 44.0254 17.6758C42.9746 15.9793 41.7241 15.3962 40.3135 14.6943C37.0782 13.0846 33.176 12.1631 29.0098 12.1631ZM29.0098 16.4756C32.5546 16.4756 35.7933 17.2624 38.3926 18.5557C39.1355 18.9253 39.5237 19.1265 39.7959 19.3203C40.0197 19.4797 40.1663 19.6346 40.3594 19.9463C40.6662 20.4418 40.7285 20.8388 40.7285 23.1807V28.5605C40.7282 36.0194 34.7617 40.3446 30.8398 42.3623C30.2572 42.6621 29.9576 42.8097 29.71 42.8955C29.5082 42.9653 29.3323 42.9961 29.0098 42.9961C28.6873 42.9961 28.5114 42.9654 28.3096 42.8955C28.0619 42.8097 27.7632 42.662 27.1807 42.3623C27.1769 42.3603 27.1728 42.3584 27.1689 42.3564C23.2471 40.3364 17.2914 36.0126 17.291 28.5605V23.1807C17.291 20.8387 17.3543 20.4417 17.6611 19.9463C17.8541 19.6348 17.9999 19.4796 18.2236 19.3203C18.4958 19.1265 18.884 18.9253 19.627 18.5557C22.2262 17.2624 25.465 16.4756 29.0098 16.4756Z" fill="#34D399"/>
</svg>
