<svg width="525" height="99" viewBox="0 0 525 99" fill="none" xmlns="http://www.w3.org/2000/svg">
<path d="M264.551 22.1514C269.718 22.1514 274.397 23.4111 278.587 25.9307C282.777 28.4503 286.094 31.8449 288.538 36.1143C291.052 40.3135 292.309 45.038 292.309 50.2871C292.309 55.5363 291.052 60.2961 288.538 64.5654C286.024 68.7648 282.637 72.1239 278.377 74.6436C274.117 77.0931 269.369 78.3183 264.132 78.3184C261.408 78.3184 258.789 77.9684 256.275 77.2686C253.762 76.4987 251.423 75.4134 249.258 74.0137V99H234.907V22.8867H249.048V27.4004C253.517 23.901 258.685 22.1514 264.551 22.1514ZM454.302 22.9414C459.539 22.9414 464.183 24.2366 468.233 26.8262C472.284 29.4157 475.461 32.915 477.766 37.3242C480.14 41.7335 481.327 46.7379 481.327 52.3369V56.1162H440.895C441.523 58.2859 442.536 60.2464 443.933 61.9961C445.399 63.7456 447.18 65.1101 449.274 66.0898C451.439 67.0697 453.743 67.5595 456.188 67.5596C458.632 67.5596 460.866 67.1752 462.892 66.4053C464.987 65.6354 466.767 64.5502 468.233 63.1504L477.661 71.7588C474.309 74.4883 470.852 76.4834 467.291 77.7432C463.799 79.003 459.853 79.6328 455.454 79.6328C450.007 79.6328 445.049 78.3731 440.58 75.8535C436.181 73.3339 432.689 69.9392 430.105 65.6699C427.522 61.4006 426.23 56.6062 426.23 51.2871C426.231 45.968 427.452 41.1736 429.896 36.9043C432.41 32.6351 435.797 29.2403 440.057 26.7207C444.316 24.2012 449.065 22.9415 454.302 22.9414ZM352.072 22C357.31 22 361.954 23.2952 366.004 25.8848C370.054 28.4743 373.231 31.9737 375.535 36.3828C377.909 40.7921 379.097 45.7964 379.097 51.3955V55.1748H338.665C339.293 57.3444 340.306 59.304 341.702 61.0537C343.169 62.8034 344.949 64.1686 347.044 65.1484C349.209 66.1283 351.514 66.6182 353.958 66.6182C356.402 66.6181 358.636 66.2336 360.661 65.4639C362.756 64.694 364.537 63.6088 366.004 62.209L375.431 70.8174C372.079 73.547 368.622 75.542 365.061 76.8018C361.569 78.0615 357.624 78.6914 353.225 78.6914C347.778 78.6914 342.82 77.4316 338.351 74.9121C333.951 72.3925 330.46 68.9978 327.876 64.7285C325.292 60.4592 324 55.6649 324 50.3457C324 45.0265 325.222 40.2322 327.666 35.9629C330.18 31.6936 333.567 28.2989 337.826 25.7793C342.086 23.2597 346.835 22 352.072 22ZM38.9658 2.93945C43.0159 2.93945 46.9265 3.49939 50.6973 4.61914C54.4682 5.73897 57.9606 7.31406 61.1729 9.34375C64.4547 11.3733 67.2475 13.823 69.5518 16.6924L59.2871 26.876C56.6335 23.5865 53.5609 21.1016 50.0693 19.4219C46.6476 17.7421 42.9462 16.9023 38.9658 16.9023C35.6838 16.9024 32.6111 17.5322 29.748 18.792C26.8851 19.9817 24.4064 21.6616 22.3115 23.8311C20.2166 25.9307 18.5748 28.4511 17.3877 31.3906C16.2007 34.2601 15.6074 37.4096 15.6074 40.8389C15.6074 44.1982 16.2007 47.3477 17.3877 50.2871C18.5748 53.1566 20.2513 55.6761 22.416 57.8457C24.5808 59.9454 27.0949 61.5905 29.958 62.7803C32.8907 63.97 36.0678 64.5654 39.4893 64.5654C43.3299 64.5654 46.9265 63.7601 50.2783 62.1504C53.6302 60.5406 56.5989 58.2312 59.1826 55.2217L69.1328 65.0898C66.8284 67.8894 64.0706 70.3043 60.8584 72.334C57.6462 74.3636 54.1546 75.9388 50.3838 77.0586C46.6827 78.1084 42.8764 78.6328 38.9658 78.6328C33.5191 78.6328 28.4213 77.6885 23.6729 75.7988C18.9244 73.8391 14.7694 71.1443 11.208 67.7148C7.71643 64.2854 4.95773 60.2954 2.93262 55.7461C0.977478 51.127 1.35548e-05 46.1578 0 40.8389C0 35.4497 0.977336 30.48 2.93262 25.9307C4.95772 21.3114 7.75114 17.2869 11.3125 13.8574C14.8739 10.428 18.9942 7.7686 23.6729 5.87891C28.4213 3.91923 33.519 2.93947 38.9658 2.93945ZM102.142 21.8369C107.588 21.8369 112.512 23.0966 116.911 25.6162C121.38 28.1358 124.872 31.5651 127.386 35.9043C129.969 40.1736 131.262 44.968 131.262 50.2871C131.262 55.6062 129.969 60.4006 127.386 64.6699C124.872 68.9393 121.415 72.3339 117.016 74.8535C112.616 77.3731 107.658 78.6328 102.142 78.6328C96.6947 78.6328 91.7715 77.3731 87.3721 74.8535C82.9728 72.3339 79.4812 68.9392 76.8975 64.6699C74.3138 60.4006 73.0215 55.6062 73.0215 50.2871C73.0215 44.968 74.2791 40.1736 76.793 35.9043C79.3767 31.5651 82.8683 28.1358 87.2676 25.6162C91.7368 23.0966 96.6948 21.8369 102.142 21.8369ZM417.044 22.627C419.698 22.6969 421.688 23.1168 423.015 23.8867V36.4844C421.967 35.9945 420.815 35.6445 419.558 35.4346C418.301 35.1547 417.009 35.0147 415.683 35.0146C412.889 35.0146 410.34 35.7146 408.036 37.1143C405.732 38.514 403.881 40.509 402.484 43.0986V78.583H388.134V23.8867H402.484V29.9756C404.23 27.596 406.325 25.7764 408.77 24.5166C411.214 23.2569 413.972 22.627 417.044 22.627ZM519.029 22.627C521.683 22.6969 523.673 23.1168 525 23.8867V36.4844C523.953 35.9945 522.8 35.6445 521.543 35.4346C520.286 35.1547 518.995 35.0147 517.668 35.0146C514.875 35.0146 512.326 35.7146 510.021 37.1143C507.717 38.514 505.866 40.5091 504.47 43.0986V78.583H490.119V23.8867H504.47V29.9756C506.215 27.5961 508.31 25.7764 510.754 24.5166C513.198 23.2568 515.957 22.627 519.029 22.627ZM203.14 21.8369C207.26 21.8369 210.856 22.7813 213.929 24.6709C217.071 26.4906 219.516 29.0455 221.262 32.335C223.077 35.5543 223.984 39.3338 223.984 43.6729V77.583H209.739V45.7734C209.739 42.204 208.797 39.4037 206.911 37.374C205.026 35.2744 202.512 34.2246 199.369 34.2246C197.204 34.2246 195.214 34.68 193.398 35.5898C191.653 36.4997 190.151 37.8641 188.895 39.6836C188.964 40.3134 189.034 40.9435 189.104 41.5732C189.173 42.203 189.209 42.9032 189.209 43.6729V77.583H174.858V45.7734C174.858 42.204 173.916 39.4037 172.03 37.374C170.215 35.2744 167.735 34.2246 164.593 34.2246C162.428 34.2246 160.473 34.6446 158.728 35.4844C157.052 36.3242 155.62 37.584 154.433 39.2637V77.583H140.082V22.8867H154.433V27.0859C158.343 23.5866 163.091 21.837 168.678 21.8369C172.239 21.8369 175.417 22.5713 178.21 24.041C181.003 25.4408 183.307 27.4359 185.123 30.0254C187.358 27.3658 189.977 25.3363 192.979 23.9365C196.052 22.5368 199.439 21.837 203.14 21.8369ZM315.338 77.583H300.988V4.09473L315.338 1.67969V77.583ZM102.031 34C97.8653 34 93.9637 34.9217 90.7285 36.5312C89.3179 37.2331 88.0664 37.8162 87.0156 39.5127C86.0731 41.0346 86.0029 42.5736 86 44.2773V50.3975C86.0004 60.4629 94.0417 65.8802 98.2285 68.0342C99.3718 68.6224 100.346 69.1455 102.031 69.1455C103.717 69.1455 104.691 68.6225 105.834 68.0342C110.021 65.8802 118.062 60.4629 118.062 50.3975V45.0176C118.063 43.0133 118.124 41.2519 117.047 39.5127C115.996 37.8162 114.746 37.2331 113.335 36.5312C110.1 34.9215 106.198 34 102.031 34ZM262.246 34.4346C259.593 34.4346 257.149 34.89 254.914 35.7998C252.749 36.6396 250.864 37.9341 249.258 39.6836V60.9961C250.794 62.6057 252.68 63.8656 254.914 64.7754C257.218 65.6852 259.662 66.1396 262.246 66.1396C265.249 66.1396 267.937 65.4398 270.312 64.04C272.756 62.6403 274.676 60.7506 276.072 58.3711C277.469 55.9915 278.168 53.2967 278.168 50.2871C278.168 47.2777 277.469 44.5827 276.072 42.2031C274.676 39.7537 272.755 37.8639 270.312 36.5342C267.937 35.1345 265.249 34.4346 262.246 34.4346ZM102.031 38.3125C105.576 38.3125 108.815 39.0993 111.414 40.3926C112.157 40.7622 112.545 40.9634 112.817 41.1572C113.041 41.3166 113.188 41.4715 113.381 41.7832C113.688 42.2787 113.75 42.6757 113.75 45.0176V50.3975C113.75 57.8563 107.783 62.1815 103.861 64.1992C103.279 64.4991 102.979 64.6467 102.731 64.7324C102.53 64.8022 102.354 64.833 102.031 64.833C101.709 64.833 101.533 64.8023 101.331 64.7324C101.083 64.6467 100.785 64.4989 100.202 64.1992C100.198 64.1973 100.194 64.1953 100.19 64.1934C96.2686 62.1733 90.3129 57.8495 90.3125 50.3975V45.0176C90.3125 42.6756 90.3758 42.2787 90.6826 41.7832C90.8756 41.4717 91.0214 41.3165 91.2451 41.1572C91.5173 40.9634 91.9055 40.7623 92.6484 40.3926C95.2477 39.0993 98.4864 38.3125 102.031 38.3125ZM453.988 34.8047C451.754 34.8047 449.729 35.2601 447.913 36.1699C446.098 37.0797 444.561 38.3741 443.304 40.0537C442.117 41.6634 441.244 43.5885 440.686 45.8281H467.187C466.698 43.6585 465.79 41.7689 464.463 40.1592C463.206 38.4794 461.669 37.1843 459.854 36.2744C458.108 35.2947 456.153 34.8047 453.988 34.8047ZM351.758 33.8633C349.523 33.8633 347.498 34.3178 345.683 35.2275C343.867 36.1373 342.331 37.4327 341.074 39.1123C339.887 40.7221 339.014 42.6471 338.455 44.8867H364.956C364.467 42.7171 363.559 40.8275 362.232 39.2178C360.975 37.5381 359.44 36.2429 357.624 35.333C355.878 34.3532 353.923 33.8633 351.758 33.8633Z" fill="#34D399"/>
</svg>
